<?xml version="1.0"?>
<svg xmlns="http://www.w3.org/2000/svg" xmlns:xlink="http://www.w3.org/1999/xlink" xmlns:svgjs="http://svgjs.com/svgjs" version="1.1" width="512" height="512" x="0" y="0" viewBox="0 0 512 512" style="enable-background:new 0 0 512 512" xml:space="preserve" class=""><g><path xmlns="http://www.w3.org/2000/svg" d="m240 64h56v64a8 8 0 0 0 8 8h64a8 8 0 0 0 8-8v-64h56v80h16v-88a8 8 0 0 0 -8-8h-416a8 8 0 0 0 -8 8v416a8 8 0 0 0 8 8h248v-16h-32v-192h32v-16h-32zm120 56h-48v-56h48zm-256-56h48v56h-48zm-16 0v64a8 8 0 0 0 8 8h64a8 8 0 0 0 8-8v-64h56v192h-192v-192zm16 208h48v56h-48zm120 192h-192v-192h56v64a8 8 0 0 0 8 8h64a8 8 0 0 0 8-8v-64h56z" fill="#1d2733" data-original="#000000" style="" class=""/><path xmlns="http://www.w3.org/2000/svg" d="m192 224h16v16h-16z" fill="#1d2733" data-original="#000000" style="" class=""/><path xmlns="http://www.w3.org/2000/svg" d="m160 224h16v16h-16z" fill="#1d2733" data-original="#000000" style="" class=""/><path xmlns="http://www.w3.org/2000/svg" d="m192 432h16v16h-16z" fill="#1d2733" data-original="#000000" style="" class=""/><path xmlns="http://www.w3.org/2000/svg" d="m160 432h16v16h-16z" fill="#1d2733" data-original="#000000" style="" class=""/><path xmlns="http://www.w3.org/2000/svg" d="m88 16h240v16h-240z" fill="#1d2733" data-original="#000000" style="" class=""/><path xmlns="http://www.w3.org/2000/svg" d="m344 16h16v16h-16z" fill="#1d2733" data-original="#000000" style="" class=""/><path xmlns="http://www.w3.org/2000/svg" d="m464 160h-144a32.036 32.036 0 0 0 -32 32v272a32.036 32.036 0 0 0 32 32h144a32.036 32.036 0 0 0 32-32v-272a32.036 32.036 0 0 0 -32-32zm16 304a16.019 16.019 0 0 1 -16 16h-144a16.019 16.019 0 0 1 -16-16v-272a16.019 16.019 0 0 1 16-16h144a16.019 16.019 0 0 1 16 16z" fill="#1d2733" data-original="#000000" style="" class=""/><path xmlns="http://www.w3.org/2000/svg" d="m368 192h16v16h-16z" fill="#1d2733" data-original="#000000" style="" class=""/><path xmlns="http://www.w3.org/2000/svg" d="m400 192h16v16h-16z" fill="#1d2733" data-original="#000000" style="" class=""/><path xmlns="http://www.w3.org/2000/svg" d="m384 448h16v16h-16z" fill="#1d2733" data-original="#000000" style="" class=""/><path xmlns="http://www.w3.org/2000/svg" d="m392 300.687-14.469-14.47-11.314 11.314 20.126 20.126a8 8 0 0 0 11.314 0l64-64-11.314-11.314z" fill="#1d2733" data-original="#000000" style="" class=""/><path xmlns="http://www.w3.org/2000/svg" d="m392 352a56.063 56.063 0 0 0 56-56h-16a39.98 39.98 0 1 1 -20.006-34.653l8.012-13.85a56 56 0 1 0 -28.006 104.503z" fill="#1d2733" data-original="#000000" style="" class=""/><path xmlns="http://www.w3.org/2000/svg" d="m328 376h16v16h-16z" fill="#1d2733" data-original="#000000" style="" class=""/><path xmlns="http://www.w3.org/2000/svg" d="m360 376h96v16h-96z" fill="#1d2733" data-original="#000000" style="" class=""/><path xmlns="http://www.w3.org/2000/svg" d="m328 408h128v16h-128z" fill="#1d2733" data-original="#000000" style="" class=""/></g></svg>
