<?xml version="1.0"?>
<svg xmlns="http://www.w3.org/2000/svg" xmlns:xlink="http://www.w3.org/1999/xlink" xmlns:svgjs="http://svgjs.com/svgjs" version="1.1" width="512" height="512" x="0" y="0" viewBox="0 0 64 64" style="enable-background:new 0 0 512 512" xml:space="preserve" class=""><g><g xmlns="http://www.w3.org/2000/svg" id="laptop-share-network-smartphone-smartphones"><path d="m17 34h-12a3.009 3.009 0 0 0 -3 3v22a3.009 3.009 0 0 0 3 3h12a3.009 3.009 0 0 0 3-3v-22a3.009 3.009 0 0 0 -3-3zm-3.28 2-.5 2h-4.44l-.5-2zm4.28 23a1 1 0 0 1 -1 1h-12a1 1 0 0 1 -1-1v-22a1 1 0 0 1 1-1h1.22l.81 3.24a1 1 0 0 0 .97.76h6a1 1 0 0 0 .97-.76l.81-3.24h1.22a1 1 0 0 1 1 1z" fill="#151a6a" data-original="#000000" style="" class=""/><path d="m59 34h-12a3.009 3.009 0 0 0 -3 3v22a3.009 3.009 0 0 0 3 3h12a3.009 3.009 0 0 0 3-3v-22a3.009 3.009 0 0 0 -3-3zm-3.28 2-.5 2h-4.44l-.5-2zm4.28 23a1 1 0 0 1 -1 1h-12a1 1 0 0 1 -1-1v-22a1 1 0 0 1 1-1h1.22l.81 3.24a1 1 0 0 0 .97.76h6a1 1 0 0 0 .97-.76l.81-3.24h1.22a1 1 0 0 1 1 1z" fill="#151a6a" data-original="#000000" style="" class=""/><path d="m50 24h-1v-17a5 5 0 0 0 -5-5h-24a5 5 0 0 0 -5 5v17h-1a1 1 0 0 0 -1 1v2a5 5 0 0 0 5 5h28a5 5 0 0 0 5-5v-2a1 1 0 0 0 -1-1zm-33-17a3.009 3.009 0 0 1 3-3h24a3.009 3.009 0 0 1 3 3v17h-2v-16a2.006 2.006 0 0 0 -2-2h-22a2.006 2.006 0 0 0 -2 2v16h-2zm26 1v16h-22v-16zm6 19a3.009 3.009 0 0 1 -3 3h-28a3.009 3.009 0 0 1 -3-3v-1h34z" fill="#151a6a" data-original="#000000" style="" class=""/><path d="m34.82 47a3.035 3.035 0 0 0 -1.82-1.82v-3.18h-2v3.18a3.035 3.035 0 0 0 -1.82 1.82h-3.18v2h3.18a2.988 2.988 0 0 0 5.64 0h3.18v-2zm-2.82 2a1 1 0 1 1 1-1 1 1 0 0 1 -1 1z" fill="#151a6a" data-original="#000000" style="" class=""/><path d="m31 34h2v2h-2z" fill="#151a6a" data-original="#000000" style="" class=""/><path d="m31 38h2v2h-2z" fill="#151a6a" data-original="#000000" style="" class=""/><path d="m22 47h2v2h-2z" fill="#151a6a" data-original="#000000" style="" class=""/><path d="m40 47h2v2h-2z" fill="#151a6a" data-original="#000000" style="" class=""/><path d="m11 6h2v2h-2z" fill="#151a6a" data-original="#000000" style="" class=""/><path d="m7 6h2v2h-2z" fill="#151a6a" data-original="#000000" style="" class=""/><path d="m7 10h2v2h-2z" fill="#151a6a" data-original="#000000" style="" class=""/><path d="m7 14h2v2h-2z" fill="#151a6a" data-original="#000000" style="" class=""/><path d="m7 18h2v2h-2z" fill="#151a6a" data-original="#000000" style="" class=""/><path d="m7 22h2v2h-2z" fill="#151a6a" data-original="#000000" style="" class=""/><path d="m7 26h2v2h-2z" fill="#151a6a" data-original="#000000" style="" class=""/><path d="m7 30h2v2h-2z" fill="#151a6a" data-original="#000000" style="" class=""/><path d="m51 6h2v2h-2z" fill="#151a6a" data-original="#000000" style="" class=""/><path d="m55 6h2v2h-2z" fill="#151a6a" data-original="#000000" style="" class=""/><path d="m55 10h2v2h-2z" fill="#151a6a" data-original="#000000" style="" class=""/><path d="m55 14h2v2h-2z" fill="#151a6a" data-original="#000000" style="" class=""/><path d="m55 18h2v2h-2z" fill="#151a6a" data-original="#000000" style="" class=""/><path d="m55 22h2v2h-2z" fill="#151a6a" data-original="#000000" style="" class=""/><path d="m55 26h2v2h-2z" fill="#151a6a" data-original="#000000" style="" class=""/><path d="m55 30h2v2h-2z" fill="#151a6a" data-original="#000000" style="" class=""/><path d="m50 56h6v2h-6z" fill="#151a6a" data-original="#000000" style="" class=""/><path d="m8 56h6v2h-6z" fill="#151a6a" data-original="#000000" style="" class=""/></g></g></svg>
