<?xml version="1.0"?>
<svg xmlns="http://www.w3.org/2000/svg" xmlns:xlink="http://www.w3.org/1999/xlink" xmlns:svgjs="http://svgjs.com/svgjs" version="1.1" width="512" height="512" x="0" y="0" viewBox="0 0 511.999 511.999" style="enable-background:new 0 0 512 512" xml:space="preserve" class=""><g>
<g xmlns="http://www.w3.org/2000/svg">
	<g>
		<path d="M387.854,303.072h-44.16c-4.665-23.507-25.447-41.282-50.303-41.282c-24.855,0-45.638,17.775-50.303,41.282h-34.16    v-43.183c0-5.523-4.477-10-10-10c-17.249,0-31.281-14.033-31.281-31.281c0-17.249,14.032-31.282,31.281-31.282    c5.523,0,10-4.477,10-10v-53.182c0-5.523-4.477-10-10-10H10c-5.523,0-10,4.477-10,10v377.854c0,5.523,4.477,10,10,10    l377.853,0.001c5.523,0,10-4.477,10-10V313.072C397.854,307.549,393.376,303.072,387.854,303.072z M20,169.143h31.438    c5.522,0,10-4.477,10-10s-4.478-10-10-10H20v-15h168.928v34.161c-23.507,4.665-41.281,25.447-41.281,50.303    s17.774,45.638,41.281,50.302v34.161h-43.182c-5.523,0-10,4.477-10,10c0,17.249-14.033,31.282-31.283,31.282    c-17.249,0-31.281-14.033-31.281-31.282c0-5.523-4.478-10-10-10H20V169.143z M188.928,448.817v43.182H20V323.071h34.16    c4.665,23.507,25.447,41.282,50.303,41.282s45.64-17.775,50.305-41.282h34.16v43.183c0,5.523,4.478,10,10,10    c17.249,0,31.281,14.033,31.281,31.282s-14.032,31.281-31.281,31.281C193.406,438.817,188.928,443.294,188.928,448.817z     M377.854,491.999h-15V460.56c0-5.523-4.477-10-10-10c-5.522,0-10,4.477-10,10v31.439H208.928v-34.162    c23.507-4.664,41.281-25.446,41.281-50.302c0-24.856-17.774-45.639-41.281-50.303v-34.161h43.182c5.522,0,10-4.477,10-10    c0-17.249,14.032-31.282,31.281-31.282c17.249,0,31.281,14.033,31.281,31.282c0,5.523,4.477,10,10,10h43.182V491.999z" fill="#1d2733" data-original="#000000" style="" class=""/>
	</g>
</g>
<g xmlns="http://www.w3.org/2000/svg">
	<g>
		<path d="M501.998,0H313.071c-5.522,0-10,4.477-10,10v44.161c-23.507,4.665-41.281,25.447-41.281,50.303    s17.774,45.638,41.281,50.302v44.161c0,5.523,4.478,10,10,10h53.182c5.522,0,10-4.477,10-10c0-17.249,14.033-31.282,31.283-31.282    c17.249,0,31.281,14.033,31.281,31.282c0,5.523,4.477,10,10,10h53.182c5.523,0,10-4.477,10-10V10    C511.998,4.477,507.521,0,501.998,0z M491.998,188.927h-34.16c-4.665-23.507-25.447-41.282-50.303-41.282    c-24.856,0-45.64,17.775-50.305,41.282h-34.16v-43.182c0-5.523-4.477-10-10-10c-17.249,0-31.281-14.033-31.281-31.281    c0-17.249,14.032-31.282,31.281-31.282c5.523,0,10-4.477,10-10V20h168.928V188.927z" fill="#1d2733" data-original="#000000" style="" class=""/>
	</g>
</g>
<g xmlns="http://www.w3.org/2000/svg">
	<g>
		<path d="M80.999,149.143h-0.475c-5.522,0-10,4.477-10,10s4.477,10,10,10h0.475c5.522,0,10-4.477,10-10    S86.521,149.143,80.999,149.143z" fill="#1d2733" data-original="#000000" style="" class=""/>
	</g>
</g>
<g xmlns="http://www.w3.org/2000/svg">
	<g>
		<path d="M352.854,421.001c-5.522,0-10,4.477-10,10v0.475c0,5.523,4.478,10,10,10c5.523,0,10-4.477,10-10v-0.475    C362.854,425.478,358.377,421.001,352.854,421.001z" fill="#1d2733" data-original="#000000" style="" class=""/>
	</g>
</g>
<g xmlns="http://www.w3.org/2000/svg">
</g>
<g xmlns="http://www.w3.org/2000/svg">
</g>
<g xmlns="http://www.w3.org/2000/svg">
</g>
<g xmlns="http://www.w3.org/2000/svg">
</g>
<g xmlns="http://www.w3.org/2000/svg">
</g>
<g xmlns="http://www.w3.org/2000/svg">
</g>
<g xmlns="http://www.w3.org/2000/svg">
</g>
<g xmlns="http://www.w3.org/2000/svg">
</g>
<g xmlns="http://www.w3.org/2000/svg">
</g>
<g xmlns="http://www.w3.org/2000/svg">
</g>
<g xmlns="http://www.w3.org/2000/svg">
</g>
<g xmlns="http://www.w3.org/2000/svg">
</g>
<g xmlns="http://www.w3.org/2000/svg">
</g>
<g xmlns="http://www.w3.org/2000/svg">
</g>
<g xmlns="http://www.w3.org/2000/svg">
</g>
</g></svg>
