<?xml version="1.0"?>
<svg xmlns="http://www.w3.org/2000/svg" xmlns:xlink="http://www.w3.org/1999/xlink" xmlns:svgjs="http://svgjs.com/svgjs" version="1.1" width="512" height="512" x="0" y="0" viewBox="0 0 512 512" style="enable-background:new 0 0 512 512" xml:space="preserve" class=""><g><g xmlns="http://www.w3.org/2000/svg"><path d="m32 34a2 2 0 0 1 2-2h316a2 2 0 0 1 2 2v190h16v-190a18.021 18.021 0 0 0 -18-18h-316a18.021 18.021 0 0 0 -18 18v46h16z" fill="#1d2733" data-original="#000000" style="" class=""/><path d="m32 478v-382h-16v382a18.021 18.021 0 0 0 18 18h286v-16h-286a2 2 0 0 1 -2-2z" fill="#1d2733" data-original="#000000" style="" class=""/><path d="m336 224v-168a8 8 0 0 0 -8-8h-272a8 8 0 0 0 -8 8v368a8 8 0 0 0 8 8h192v-16h-184v-352h256v160z" fill="#1d2733" data-original="#000000" style="" class=""/><path d="m168 448h48v16h-48z" fill="#1d2733" data-original="#000000" style="" class=""/><path d="m304 224v-136a8 8 0 0 0 -8-8h-208a8 8 0 0 0 -8 8v136a8 8 0 0 0 8 8h208a8 8 0 0 0 8-8zm-16-8h-192v-120h192z" fill="#1d2733" data-original="#000000" style="" class=""/><path d="m184 112h16v88h-16z" fill="#1d2733" data-original="#000000" style="" class=""/><path d="m208 128h16v72h-16z" fill="#1d2733" data-original="#000000" style="" class=""/><path d="m232 144h16v56h-16z" fill="#1d2733" data-original="#000000" style="" class=""/><path d="m256 160h16v40h-16z" fill="#1d2733" data-original="#000000" style="" class=""/><path d="m160 128h16v72h-16z" fill="#1d2733" data-original="#000000" style="" class=""/><path d="m136 144h16v56h-16z" fill="#1d2733" data-original="#000000" style="" class=""/><path d="m112 160h16v40h-16z" fill="#1d2733" data-original="#000000" style="" class=""/><path d="m192 256a8 8 0 0 0 -8-8h-96a8 8 0 0 0 -8 8v48a8 8 0 0 0 8 8h96a8 8 0 0 0 8-8zm-16 40h-80v-32h80z" fill="#1d2733" data-original="#000000" style="" class=""/><path d="m184 328h-96a8 8 0 0 0 -8 8v48a8 8 0 0 0 8 8h96a8 8 0 0 0 8-8v-48a8 8 0 0 0 -8-8zm-8 48h-80v-32h80z" fill="#1d2733" data-original="#000000" style="" class=""/><path d="m208 248h56v16h-56z" fill="#1d2733" data-original="#000000" style="" class=""/><path d="m208 280h32v16h-32z" fill="#1d2733" data-original="#000000" style="" class=""/><path d="m208 328h16v16h-16z" fill="#1d2733" data-original="#000000" style="" class=""/><path d="m208 360h16v16h-16z" fill="#1d2733" data-original="#000000" style="" class=""/><path d="m496 360v-16a8 8 0 0 0 -8-8h-21.018a103.446 103.446 0 0 0 -6.368-15.359l14.866-14.867a8 8 0 0 0 0-11.314l-33.941-33.94a8 8 0 0 0 -11.313 0l-14.867 14.866a103.446 103.446 0 0 0 -15.359-6.368v-21.018a8 8 0 0 0 -8-8h-48a8 8 0 0 0 -8 8v21.018a103.446 103.446 0 0 0 -15.359 6.368l-14.867-14.866a8 8 0 0 0 -11.313 0l-33.941 33.94a8 8 0 0 0 0 11.314l14.866 14.867a103.446 103.446 0 0 0 -6.368 15.359h-21.018a8 8 0 0 0 -8 8v48a8 8 0 0 0 8 8h21.018a103.446 103.446 0 0 0 6.368 15.359l-14.866 14.867a8 8 0 0 0 0 11.314l33.941 33.94a8 8 0 0 0 11.313 0l14.867-14.866a103.446 103.446 0 0 0 15.359 6.368v21.018a8 8 0 0 0 8 8h48a8 8 0 0 0 8-8v-21.018a103.446 103.446 0 0 0 15.359-6.368l14.867 14.866a8 8 0 0 0 11.313 0l33.941-33.94a8 8 0 0 0 0-11.314l-14.866-14.867a103.446 103.446 0 0 0 6.368-15.359h21.018a8 8 0 0 0 8-8v-16h-16v8h-19.024a8 8 0 0 0 -7.748 6.006 87.439 87.439 0 0 1 -9.407 22.692 8 8 0 0 0 1.231 9.727l13.458 13.458-22.628 22.627-13.458-13.459a8 8 0 0 0 -9.727-1.23 87.377 87.377 0 0 1 -22.691 9.407 8 8 0 0 0 -6.006 7.748v19.024h-32v-19.024a8 8 0 0 0 -6.006-7.748 87.377 87.377 0 0 1 -22.691-9.407 8 8 0 0 0 -9.727 1.23l-13.458 13.459-22.628-22.627 13.458-13.458a8 8 0 0 0 1.231-9.727 87.439 87.439 0 0 1 -9.407-22.692 8 8 0 0 0 -7.748-6.006h-19.024v-32h19.024a8 8 0 0 0 7.748-6.006 87.439 87.439 0 0 1 9.407-22.692 8 8 0 0 0 -1.231-9.727l-13.458-13.458 22.628-22.627 13.458 13.459a8 8 0 0 0 9.727 1.23 87.377 87.377 0 0 1 22.691-9.407 8 8 0 0 0 6.006-7.748v-19.024h32v19.024a8 8 0 0 0 6.006 7.748 87.377 87.377 0 0 1 22.691 9.407 8 8 0 0 0 9.727-1.23l13.458-13.459 22.628 22.627-13.458 13.458a8 8 0 0 0 -1.231 9.727 87.439 87.439 0 0 1 9.407 22.692 8 8 0 0 0 7.748 6.006h19.024v8z" fill="#1d2733" data-original="#000000" style="" class=""/><path d="m368 304a64 64 0 1 0 64 64 64.072 64.072 0 0 0 -64-64zm0 112a48 48 0 1 1 48-48 48.054 48.054 0 0 1 -48 48z" fill="#1d2733" data-original="#000000" style="" class=""/></g></g></svg>
